<svg xmlns="http://www.w3.org/2000/svg" viewBox="0 0 300 150" width="100%" height="100%" preserveAspectRatio="xMidYMid meet" role="img" aria-label="Iowa license plate: Farm Heritage"><defs><clipPath id="iowa-clip"><rect width="300" height="150" rx="15"/></clipPath><linearGradient id="iowa-face" x1="0" y1="0" x2="0" y2="1"><stop offset="0" stop-color="#ffffff"/><stop offset="1" stop-color="#e8f1fa"/></linearGradient></defs><rect width="300" height="150" rx="15" fill="url(#iowa-face)"/><g clip-path="url(#iowa-clip)"><polygon points="0.0,150.0 0.0,120.0 60.0,110.0 130.0,122.0 200.0,108.0 260.0,118.0 300.0,110.0 300.0,150.0" fill="#3f6f45" opacity=".9"/><g transform="translate(16,68) scale(0.56)" fill="#1e3a1c" opacity=".95"><path d="M8 48 L36 24 L64 48 L64 96 L8 96 Z"/><path d="M0 50 L36 20 L72 50 L64 58 L36 34 L8 58 Z"/><rect x="76" y="30" width="22" height="66" rx="4"/><path d="M74 30 q13 -16 26 0 Z"/><rect x="26" y="64" width="20" height="32" fill="#ffffff" fill-opacity=".5"/><path d="M26 64 L46 96 M46 64 L26 96" stroke="#ffffff" stroke-opacity=".5" stroke-width="3" fill="none"/></g><g fill="#22421f" opacity=".9"><rect x="226.7" y="117.8" width="2.5" height="4.7" fill="#22421f"/><polygon points="228.0,96.0 233.2,107.4 222.8,107.4"/><polygon points="228.0,102.8 235.2,114.2 220.8,114.2"/><polygon points="228.0,109.0 237.0,118.4 219.0,118.4"/></g><g fill="#22421f" opacity=".9"><rect x="249.0" y="120.8" width="2.0" height="3.6" fill="#22421f"/><polygon points="250.0,104.0 254.1,112.8 245.9,112.8"/><polygon points="250.0,109.2 255.6,118.0 244.4,118.0"/><polygon points="250.0,114.0 257.0,121.2 243.0,121.2"/></g><g stroke="#ffffff" stroke-width="1.6" opacity=".28" fill="none"><path d="M0 132 h300"/><path d="M0 140 h300"/></g></g><text x="150" y="27" font-family="'Helvetica Neue',Helvetica,Arial,sans-serif" font-size="22" font-weight="700" fill="#17427a" text-anchor="middle" letter-spacing="4">IOWA</text><text x="150" y="96" font-family="'Helvetica Neue',Arial,sans-serif" font-size="44" font-weight="700" fill="#17427a" text-anchor="middle" letter-spacing="3">ABC 123</text><rect x="4.5" y="4.5" width="291" height="141" rx="11" fill="none" stroke="#17427a" stroke-width="2" opacity=".45"/><rect x=".9" y=".9" width="298.2" height="148.2" rx="14.2" fill="none" stroke="rgba(0,0,0,.32)" stroke-width="1.8"/></svg>
