<svg xmlns="http://www.w3.org/2000/svg" viewBox="0 0 300 150" width="100%" height="100%" preserveAspectRatio="xMidYMid meet" role="img" aria-label="Rhode Island license plate: Ocean State"><defs><clipPath id="rhode-island-clip"><rect width="300" height="150" rx="15"/></clipPath><linearGradient id="rhode-island-face" x1="0" y1="0" x2="0" y2="1"><stop offset="0" stop-color="#ffffff"/><stop offset="1" stop-color="#e7f0f9"/></linearGradient></defs><rect width="300" height="150" rx="15" fill="url(#rhode-island-face)"/><g clip-path="url(#rhode-island-clip)"><g opacity=".32"><path d="M6 112.0 q13.0 -5 26 0 q13.0 5 26 0 q13.0 -5 26 0 q13.0 5 26 0 q13.0 -5 26 0 q13.0 5 26 0 q13.0 -5 26 0 q13.0 5 26 0 q13.0 -5 26 0 q13.0 5 26 0 q13.0 -5 26 0 q13.0 5 26 0" fill="none" stroke="#2f6fb5" stroke-width="3.4" stroke-linecap="round"/><path d="M6 120.0 q13.0 -5 26 0 q13.0 5 26 0 q13.0 -5 26 0 q13.0 5 26 0 q13.0 -5 26 0 q13.0 5 26 0 q13.0 -5 26 0 q13.0 5 26 0 q13.0 -5 26 0 q13.0 5 26 0 q13.0 -5 26 0 q13.0 5 26 0" fill="none" stroke="#2f6fb5" stroke-width="3.4" stroke-linecap="round"/><path d="M6 128.0 q13.0 -5 26 0 q13.0 5 26 0 q13.0 -5 26 0 q13.0 5 26 0 q13.0 -5 26 0 q13.0 5 26 0 q13.0 -5 26 0 q13.0 5 26 0 q13.0 -5 26 0 q13.0 5 26 0 q13.0 -5 26 0 q13.0 5 26 0" fill="none" stroke="#2f6fb5" stroke-width="3.4" stroke-linecap="round"/></g><g transform="translate(16,48) scale(0.46)" fill="#17427a" opacity=".2"><circle cx="50" cy="14" r="10" fill="none" stroke-width="7" stroke="#17427a"/><rect x="46" y="20" width="8" height="62" rx="3"/><rect x="26" y="32" width="48" height="8" rx="4"/><path d="M12 58 C12 84 30 96 50 96 C70 96 88 84 88 58 L78 58 C78 78 66 86 50 86 C34 86 22 78 22 58 Z"/></g></g><text x="150" y="27" font-family="'Helvetica Neue',Helvetica,Arial,sans-serif" font-size="21" font-weight="700" fill="#17427a" text-anchor="middle" letter-spacing="1.4">Rhode Island</text><text x="150" y="96" font-family="'Helvetica Neue',Arial,sans-serif" font-size="44" font-weight="700" fill="#17427a" text-anchor="middle" letter-spacing="3">AB-123</text><text x="150" y="143" font-family="'Helvetica Neue',Helvetica,Arial,sans-serif" font-size="12" font-weight="700" fill="#17427a" text-anchor="middle" letter-spacing="0.8">Ocean State</text><rect x="4.5" y="4.5" width="291" height="141" rx="11" fill="none" stroke="#17427a" stroke-width="2" opacity=".45"/><rect x=".9" y=".9" width="298.2" height="148.2" rx="14.2" fill="none" stroke="rgba(0,0,0,.32)" stroke-width="1.8"/></svg>
